<?xml version="1.0" encoding="UTF-8"?><svg id="c" xmlns="http://www.w3.org/2000/svg" xmlns:xlink="http://www.w3.org/1999/xlink" viewBox="0 0 330.13 253.53"><defs><linearGradient id="d" x1="-.89" y1="3.01" x2="349.28" y2="264.13" gradientUnits="userSpaceOnUse"><stop offset="0" stop-color="#ed1e79"/><stop offset=".45" stop-color="#d4145a"/><stop offset="1" stop-color="blue"/></linearGradient></defs><rect x="6.22" y="6.89" width="317.68" height="239.74" rx="27.01" ry="27.01" style="fill:url(#d);"/><path d="M296.9,13.79H33.23c-11.11,0-20.11,9.01-20.11,20.11V219.63c0,11.11,9,20.11,20.11,20.11H296.9c11.1,0,20.11-9,20.11-20.11V33.9c0-11.1-9.01-20.11-20.11-20.11Z" style="fill:#39b54a;"/><g><path d="M317.01,52.43V219.63c0,11.11-9.01,20.11-20.11,20.11H33.23c-11.11,0-20.11-9-20.11-20.11V52.43H317.01Z" style="fill:#262626;"/><g><g><path d="M75.67,103.71c3.84,0,7.1,.51,9.79,1.53s5.16,2.45,7.4,4.3l-6.22,7.5c-1.46-1.21-3.09-2.16-4.87-2.88-1.78-.71-3.71-1.07-5.79-1.07-2.24,0-4.29,.63-6.15,1.91s-3.34,3.29-4.45,6.03c-1.11,2.75-1.66,6.31-1.66,10.69,0,6.44,1.16,11.13,3.5,14.04,2.34,2.93,5.33,4.38,8.99,4.38,2.68,0,4.91-.5,6.68-1.5,1.78-1,3.42-2.1,4.91-3.29l5.75,7.34c-2.01,1.98-4.49,3.68-7.42,5.09-2.93,1.41-6.48,2.12-10.62,2.12-4.84,0-9.13-1.07-12.88-3.22-3.75-2.15-6.68-5.32-8.82-9.5s-3.19-9.34-3.19-15.48,1.1-11.05,3.3-15.23c2.2-4.17,5.2-7.35,8.99-9.53s8.04-3.26,12.75-3.26h.01Z" style="fill:#fff;"/><path d="M117.55,116.23c4.22,0,7.81,.9,10.78,2.71,2.96,1.81,5.23,4.33,6.8,7.59,1.57,3.26,2.36,7.07,2.36,11.46,0,6.85-1.76,12.22-5.25,16.11-3.5,3.89-8.39,5.83-14.69,5.83s-11.18-1.91-14.69-5.75c-3.5-3.84-5.25-9.21-5.25-16.11,0-4.36,.79-8.17,2.38-11.44,1.58-3.27,3.87-5.82,6.84-7.65,2.97-1.83,6.55-2.75,10.72-2.75h.01Zm0,9.01c-2.49,0-4.34,1.03-5.54,3.08s-1.79,5.31-1.79,9.75,.59,7.81,1.79,9.86c1.2,2.03,3.05,3.05,5.54,3.05s4.34-1.02,5.54-3.05,1.79-5.35,1.79-9.92-.59-7.67-1.79-9.7-3.05-3.05-5.54-3.05h0Z" style="fill:#fff;"/><path d="M168.86,116.23c3.58,0,6.47,.88,8.66,2.67s3.79,4.29,4.8,7.54,1.53,7.1,1.53,11.55-.62,8-1.86,11.3c-1.24,3.31-3.02,5.91-5.37,7.8-2.35,1.89-5.19,2.84-8.54,2.84-4,0-7.23-1.43-9.74-4.29v18.82l-12.21,1.28v-58.15h10.82l.54,4.59c1.68-2.14,3.5-3.67,5.49-4.58,1.98-.91,3.95-1.37,5.87-1.37h0Zm-3.79,9.01c-1.41,0-2.67,.42-3.75,1.28-1.08,.84-2.07,2.01-2.97,3.48v17.32c.84,1.27,1.74,2.19,2.69,2.78,.94,.59,2.06,.88,3.34,.88,2.16,0,3.85-.99,5.07-2.96s1.82-5.27,1.82-9.87c0-3.41-.25-6.03-.74-7.91-.49-1.87-1.2-3.17-2.12-3.91s-2.03-1.1-3.33-1.1h-.01Z" style="fill:#fff;"/><path d="M192.9,158.63v-8.2h5.41v-24.73h-5.41v-8.12h14.73l2.24,9.24c1.46-3.52,3.34-6.16,5.62-7.88s5.07-2.59,8.37-2.59c1.39,0,2.63,.11,3.71,.33,1.08,.22,2.1,.53,3.05,.91l-2.28,17.16h-7.65v-7.58c-2.32,.41-4.36,1.66-6.11,3.76s-3.1,4.69-4.05,7.75v11.75h8.12v8.2h-25.74Z" style="fill:#fff;"/><path d="M273.43,146.8c0,1.54,.21,2.67,.63,3.37,.42,.7,1.11,1.23,2.07,1.58l-2.51,8.04c-2.42-.22-4.46-.77-6.12-1.6s-2.97-2.11-3.92-3.8c-1.57,1.87-3.58,3.27-6.03,4.2s-4.95,1.37-7.5,1.37c-4.22,0-7.59-1.2-10.11-3.62-2.51-2.4-3.76-5.5-3.76-9.29,0-4.46,1.74-7.89,5.24-10.32,3.48-2.42,8.41-3.63,14.74-3.63h5.53v-1.54c0-4.2-2.71-6.3-8.12-6.3-1.32,0-3,.18-5.07,.55-2.06,.37-4.12,.91-6.18,1.6l-2.82-8.12c2.65-1,5.41-1.77,8.29-2.28,2.88-.51,5.44-.78,7.71-.78,6.11,0,10.62,1.24,13.54,3.74,2.92,2.48,4.38,6.07,4.38,10.76v16.08h0Zm-19.16,4.41c1.32,0,2.69-.4,4.13-1.17,1.44-.78,2.53-1.9,3.29-3.34v-6.65h-3.01c-3.41,0-5.9,.53-7.5,1.57s-2.4,2.57-2.4,4.58c0,1.57,.49,2.8,1.45,3.7,.96,.88,2.31,1.33,4.04,1.33h0Z" style="fill:#fff;"/></g><rect x="232.82" y="180.9" width="46.68" height="7.58" style="fill:#fff;"/></g><path d="M317.01,33.9v18.53H13.12v-18.53c0-11.1,9-20.11,20.11-20.11H296.9c11.1,0,20.11,9.01,20.11,20.11Z" style="fill:#191919;"/><g><circle cx="40.32" cy="32.64" r="7.04" style="fill:red;"/><circle cx="59.68" cy="32.64" r="7.04" style="fill:#f7931e;"/><circle cx="79.04" cy="32.64" r="7.04" style="fill:#39b54a;"/></g></g></svg>