<?xml version="1.0" encoding="UTF-8"?><svg id="a" xmlns="http://www.w3.org/2000/svg" viewBox="0 0 294.72 300"><path d="M210.48,120.59v27.26h-20.86v-25.76c0-2.93-.71-5.28-2.14-7.02-1.44-1.75-3.36-2.63-5.78-2.63-2.19,0-4.09,.8-5.68,2.4-1.6,1.6-2.4,3.5-2.4,5.69,0,2.31,.72,4.2,2.17,5.69,1.45,1.49,3.29,2.23,5.52,2.23,1.82,0,3.52-.48,5.08-1.45v21.58c-1.71,.3-3.27,.45-4.69,.45-8.36,0-15.33-2.76-20.91-8.26-1.13-1.11-2.14-2.28-3.03-3.51-1.02,2.15-2.4,4.13-4.15,5.94-4.21,4.37-9.3,6.55-15.28,6.55s-11.71-2.6-16.62-7.81c-5.43,5.21-10.89,7.81-16.4,7.81-6.95,0-12.52-2.53-16.73-7.58-3.3-3.98-4.96-9.72-4.96-17.23v-31.9h20.86v29.94c0,2.35,.24,3.97,.72,4.88,.49,.91,1.36,1.37,2.62,1.37,2.35,0,3.52-2.08,3.52-6.25v-29.94h20.85v29.94c0,2.35,.25,3.97,.76,4.88,.5,.91,1.38,1.37,2.64,1.37,2.31,0,3.46-2.08,3.46-6.25v-29.94h20.86v7.54c.31-.35,.63-.69,.97-1.02,5.63-5.61,12.48-8.42,20.55-8.42,8.99,0,16.08,2.63,21.27,7.89,5.19,5.26,7.78,12.45,7.78,21.56Z" style="fill:#282828;"/><path d="M147.28,206.98v-50.27l19.92,24.22-19.92,26.05Zm43.57-26.5l20.22-26.88h-23.64l-7.3,12.55-9.05-12.55-23.8-.14h-23.11v25.77c0,2.93-.79,5.27-2.38,7.02-1.58,1.75-3.71,2.62-6.39,2.62-2.43,0-4.53-.8-6.3-2.39-1.77-1.6-2.66-3.5-2.66-5.69,0-2.31,.8-4.2,2.41-5.69,1.61-1.49,3.65-2.23,6.12-2.23,2.02,0,3.89,.48,5.62,1.45v-21.58c-1.9-.3-3.62-.45-5.19-.45-9.27,0-16.99,2.75-23.17,8.25-6.18,5.51-9.27,12.4-9.27,20.69s3.12,14.91,9.36,20.52c6.24,5.62,13.02,7.11,21.96,7.11h55.49l8.09-13.4,9.57,13.4h24.33l-20.91-28.38Zm-43.57-26.47l-.3-.41h.3v.41Z" style="fill:#282828;"/><g><path d="M147.28,208.86v-1.88l-1.44,1.88h1.44Z" style="fill:#282828;"/><polygon points="147.28 153.6 147.28 154.01 146.98 153.6 147.28 153.6" style="fill:#282828;"/></g></svg>